<svg xmlns="http://www.w3.org/2000/svg" viewBox="0 0 1600 900" role="img" aria-labelledby="title desc">
  <title id="title">Forest canopy illustration</title>
  <desc id="desc">Stylised evergreens fading into the distance.</desc>
  <rect width="1600" height="900" fill="url(#bg)" />
  <g opacity="0.4">
    <path d="M0 900 L200 520 L400 900 Z" fill="url(#treeA)" />
    <path d="M160 900 L360 540 L560 900 Z" fill="url(#treeB)" />
    <path d="M340 900 L540 500 L740 900 Z" fill="url(#treeA)" />
    <path d="M520 900 L720 520 L920 900 Z" fill="url(#treeC)" />
    <path d="M700 900 L900 500 L1100 900 Z" fill="url(#treeB)" />
    <path d="M880 900 L1080 540 L1280 900 Z" fill="url(#treeA)" />
    <path d="M1060 900 L1260 520 L1460 900 Z" fill="url(#treeC)" />
    <path d="M1240 900 L1440 560 L1600 900 Z" fill="url(#treeB)" />
  </g>
  <g opacity="0.25">
    <path d="M-80 900 L160 460 L400 900 Z" fill="url(#treeC)" />
    <path d="M120 900 L360 420 L600 900 Z" fill="url(#treeB)" />
    <path d="M320 900 L560 440 L800 900 Z" fill="url(#treeA)" />
    <path d="M520 900 L760 410 L1000 900 Z" fill="url(#treeB)" />
    <path d="M720 900 L960 440 L1200 900 Z" fill="url(#treeC)" />
    <path d="M920 900 L1160 430 L1400 900 Z" fill="url(#treeA)" />
    <path d="M1120 900 L1360 460 L1600 900 Z" fill="url(#treeB)" />
  </g>
  <g opacity="0.18">
    <path d="M0 900 L240 380 L480 900 Z" fill="url(#treeB)" />
    <path d="M220 900 L460 360 L700 900 Z" fill="url(#treeC)" />
    <path d="M440 900 L680 350 L920 900 Z" fill="url(#treeA)" />
    <path d="M660 900 L900 360 L1140 900 Z" fill="url(#treeB)" />
    <path d="M880 900 L1120 340 L1360 900 Z" fill="url(#treeC)" />
    <path d="M1100 900 L1340 360 L1580 900 Z" fill="url(#treeA)" />
  </g>
  <defs>
    <linearGradient id="bg" x1="800" y1="0" x2="800" y2="900" gradientUnits="userSpaceOnUse">
      <stop stop-color="#0b3822" />
      <stop offset="0.45" stop-color="#134a2f" />
      <stop offset="1" stop-color="#0f2418" />
    </linearGradient>
    <linearGradient id="treeA" x1="0" y1="520" x2="0" y2="900" gradientUnits="userSpaceOnUse">
      <stop stop-color="#4ade80" stop-opacity="0.85" />
      <stop offset="1" stop-color="#4ade80" stop-opacity="0" />
    </linearGradient>
    <linearGradient id="treeB" x1="0" y1="520" x2="0" y2="900" gradientUnits="userSpaceOnUse">
      <stop stop-color="#22c55e" stop-opacity="0.85" />
      <stop offset="1" stop-color="#22c55e" stop-opacity="0" />
    </linearGradient>
    <linearGradient id="treeC" x1="0" y1="520" x2="0" y2="900" gradientUnits="userSpaceOnUse">
      <stop stop-color="#10b981" stop-opacity="0.85" />
      <stop offset="1" stop-color="#10b981" stop-opacity="0" />
    </linearGradient>
  </defs>
</svg>
